<svg width="28" height="28" viewBox="0 0 28 28" fill="none" xmlns="http://www.w3.org/2000/svg">
<path fill-rule="evenodd" clip-rule="evenodd" d="M22.6534 20.2251L15.379 6.33307C15.1103 5.8203 14.5792 5.49902 14.0003 5.49902C13.4214 5.49902 12.8903 5.8203 12.6216 6.33307L5.3464 20.2251C5.09365 20.7076 5.11154 21.2872 5.39358 21.7532C5.67562 22.2192 6.18076 22.5039 6.72549 22.5038H21.2744C21.8191 22.5039 22.3242 22.2192 22.6063 21.7532C22.8883 21.2872 22.9062 20.7076 22.6534 20.2251ZM13.2214 11.2151C13.2214 10.7853 13.5699 10.4368 13.9997 10.4368C14.4295 10.4368 14.778 10.7853 14.778 11.2151V15.8847C14.778 16.3145 14.4295 16.663 13.9997 16.663C13.5699 16.663 13.2214 16.3145 13.2214 15.8847V11.2151ZM14.0171 20.1727H14.0389C14.3479 20.1677 14.6419 20.0383 14.8543 19.8137C15.0667 19.5892 15.1796 19.2885 15.1674 18.9796C15.1423 18.3425 14.6189 17.8387 13.9813 17.8379H13.9595C13.6512 17.8435 13.3581 17.9729 13.1462 18.1968C12.9342 18.4208 12.8212 18.7205 12.8326 19.0286C12.8568 19.6659 13.3794 20.1706 14.0171 20.1727Z" fill="#EA3057"/>
<mask id="mask0_1313_10212" style="mask-type:alpha" maskUnits="userSpaceOnUse" x="5" y="5" width="18" height="18">
<path fill-rule="evenodd" clip-rule="evenodd" d="M22.6534 20.2251L15.379 6.33307C15.1103 5.8203 14.5792 5.49902 14.0003 5.49902C13.4214 5.49902 12.8903 5.8203 12.6216 6.33307L5.3464 20.2251C5.09365 20.7076 5.11154 21.2872 5.39358 21.7532C5.67562 22.2192 6.18076 22.5039 6.72549 22.5038H21.2744C21.8191 22.5039 22.3242 22.2192 22.6063 21.7532C22.8883 21.2872 22.9062 20.7076 22.6534 20.2251ZM13.2214 11.2151C13.2214 10.7853 13.5699 10.4368 13.9997 10.4368C14.4295 10.4368 14.778 10.7853 14.778 11.2151V15.8847C14.778 16.3145 14.4295 16.663 13.9997 16.663C13.5699 16.663 13.2214 16.3145 13.2214 15.8847V11.2151ZM14.0171 20.1727H14.0389C14.3479 20.1677 14.6419 20.0383 14.8543 19.8137C15.0667 19.5892 15.1796 19.2885 15.1674 18.9796C15.1423 18.3425 14.6189 17.8387 13.9813 17.8379H13.9595C13.6512 17.8435 13.3581 17.9729 13.1462 18.1968C12.9342 18.4208 12.8212 18.7205 12.8326 19.0286C12.8568 19.6659 13.3794 20.1706 14.0171 20.1727Z" fill="white"/>
</mask>
<g mask="url(#mask0_1313_10212)">
</g>
</svg>
