<svg width="23" height="22" viewBox="0 0 23 22" fill="none" xmlns="http://www.w3.org/2000/svg">
<path d="M0.419067 7.45101C0.419067 12.1659 4.37024 16.8032 10.6124 20.7876C10.8448 20.9315 11.1769 21.0864 11.4093 21.0864C11.6417 21.0864 11.9738 20.9315 12.2172 20.7876C18.4484 16.8032 22.3995 12.1659 22.3995 7.45101C22.3995 3.53304 19.7101 0.766113 16.1241 0.766113C14.0766 0.766113 12.4165 1.74007 11.4093 3.23421C10.4243 1.75114 8.74198 0.766113 6.69446 0.766113C3.10852 0.766113 0.419067 3.53304 0.419067 7.45101ZM2.20097 7.45101C2.20097 4.507 4.10461 2.54801 6.67232 2.54801C8.75305 2.54801 9.94836 3.84294 10.6567 4.94971C10.9555 5.39242 11.1437 5.51416 11.4093 5.51416C11.6749 5.51416 11.8409 5.38135 12.1619 4.94971C12.9256 3.86507 14.0766 2.54801 16.1463 2.54801C18.714 2.54801 20.6176 4.507 20.6176 7.45101C20.6176 11.5682 16.268 16.0063 11.6417 19.0832C11.531 19.1606 11.4536 19.216 11.4093 19.216C11.365 19.216 11.2876 19.1606 11.1879 19.0832C6.55058 16.0063 2.20097 11.5682 2.20097 7.45101Z" fill="#8B52F6"/>
</svg>
