<svg width="23" height="22" viewBox="0 0 23 22" fill="none" xmlns="http://www.w3.org/2000/svg">
<path d="M0.511719 7.45107C0.511719 12.1659 4.46289 16.8033 10.7051 20.7877C10.9375 20.9315 11.2695 21.0865 11.502 21.0865C11.7344 21.0865 12.0664 20.9315 12.3099 20.7877C18.541 16.8033 22.4922 12.1659 22.4922 7.45107C22.4922 3.5331 19.8027 0.766174 16.2168 0.766174C14.1693 0.766174 12.5091 1.74013 11.502 3.23427C10.5169 1.7512 8.83463 0.766174 6.78711 0.766174C3.20117 0.766174 0.511719 3.5331 0.511719 7.45107ZM2.29362 7.45107C2.29362 4.50706 4.19727 2.54808 6.76497 2.54808C8.8457 2.54808 10.041 3.843 10.7493 4.94977C11.0482 5.39248 11.2363 5.51422 11.502 5.51422C11.7676 5.51422 11.9336 5.38141 12.2546 4.94977C13.0182 3.86513 14.1693 2.54808 16.2389 2.54808C18.8066 2.54808 20.7103 4.50706 20.7103 7.45107C20.7103 11.5683 16.3607 16.0064 11.7344 19.0832C11.6237 19.1607 11.5462 19.216 11.502 19.216C11.4577 19.216 11.3802 19.1607 11.2806 19.0832C6.64323 16.0064 2.29362 11.5683 2.29362 7.45107Z" fill="white"/>
</svg>
