<svg width="37" height="36" viewBox="0 0 37 36" fill="none" xmlns="http://www.w3.org/2000/svg">
<g id="cinema">
<g id="Group">
<g id="Group_2">
<path id="Vector" d="M6.83301 6V30" stroke="#8B52F6" stroke-miterlimit="10" stroke-linecap="round"/>
<path id="Vector_2" d="M10.4717 6V30" stroke="#8B52F6" stroke-miterlimit="10" stroke-linecap="round"/>
<path id="Vector_3" d="M6.83301 7.14697H10.4717" stroke="#8B52F6" stroke-miterlimit="10" stroke-linecap="round"/>
<path id="Vector_4" d="M6.83301 10.6765H10.4717" stroke="#8B52F6" stroke-miterlimit="10" stroke-linecap="round"/>
<path id="Vector_5" d="M6.83301 14.2939H10.4717" stroke="#8B52F6" stroke-miterlimit="10" stroke-linecap="round"/>
<path id="Vector_6" d="M6.83301 17.8232H10.4717" stroke="#8B52F6" stroke-miterlimit="10" stroke-linecap="round"/>
<path id="Vector_7" d="M6.83301 21.353H10.4717" stroke="#8B52F6" stroke-miterlimit="10" stroke-linecap="round"/>
<path id="Vector_8" d="M6.83301 24.8821H10.4717" stroke="#8B52F6" stroke-miterlimit="10" stroke-linecap="round"/>
<path id="Vector_9" d="M6.83301 28.4116H10.4717" stroke="#8B52F6" stroke-miterlimit="10" stroke-linecap="round"/>
</g>
<g id="Group_3">
<path id="Vector_10" d="M27.1943 6V30" stroke="#8B52F6" stroke-miterlimit="10" stroke-linecap="round"/>
<path id="Vector_11" d="M30.833 6V30" stroke="#8B52F6" stroke-miterlimit="10" stroke-linecap="round"/>
<path id="Vector_12" d="M27.1943 7.14697H30.833" stroke="#8B52F6" stroke-miterlimit="10" stroke-linecap="round"/>
<path id="Vector_13" d="M27.1943 10.6765H30.833" stroke="#8B52F6" stroke-miterlimit="10" stroke-linecap="round"/>
<path id="Vector_14" d="M27.1943 14.2939H30.833" stroke="#8B52F6" stroke-miterlimit="10" stroke-linecap="round"/>
<path id="Vector_15" d="M27.1943 17.8232H30.833" stroke="#8B52F6" stroke-miterlimit="10" stroke-linecap="round"/>
<path id="Vector_16" d="M27.1943 21.353H30.833" stroke="#8B52F6" stroke-miterlimit="10" stroke-linecap="round"/>
<path id="Vector_17" d="M27.1943 24.8821H30.833" stroke="#8B52F6" stroke-miterlimit="10" stroke-linecap="round"/>
<path id="Vector_18" d="M27.1943 28.4116H30.833" stroke="#8B52F6" stroke-miterlimit="10" stroke-linecap="round"/>
</g>
<path id="Vector_19" d="M10.4717 10.147H27.1943" stroke="#8B52F6" stroke-miterlimit="10" stroke-linecap="round"/>
<path id="Vector_20" d="M10.4717 26.0293H27.1943" stroke="#8B52F6" stroke-miterlimit="10" stroke-linecap="round"/>
</g>
</g>
</svg>
