<svg width="36" height="36" viewBox="0 0 36 36" fill="none" xmlns="http://www.w3.org/2000/svg">
<g id="concert">
<g id="Group">
<path id="Vector" d="M7.0255 22.9781C8.36528 22.9781 9.45139 21.9079 9.45139 20.5878C9.45139 19.2677 8.36528 18.1975 7.0255 18.1975C5.68572 18.1975 4.59961 19.2677 4.59961 20.5878C4.59961 21.9079 5.68572 22.9781 7.0255 22.9781Z" stroke="#8B52F6" stroke-miterlimit="10"/>
<path id="Vector_2" d="M17.9415 21.2706C19.2813 21.2706 20.3674 20.2004 20.3674 18.8803C20.3674 17.5602 19.2813 16.49 17.9415 16.49C16.6017 16.49 15.5156 17.5602 15.5156 18.8803C15.5156 20.2004 16.6017 21.2706 17.9415 21.2706Z" stroke="#8B52F6" stroke-miterlimit="10"/>
<path id="Vector_3" d="M22.7941 31.5999C24.1338 31.5999 25.2199 30.5298 25.2199 29.2096C25.2199 27.8895 24.1338 26.8193 22.7941 26.8193C21.4543 26.8193 20.3682 27.8895 20.3682 29.2096C20.3682 30.5298 21.4543 31.5999 22.7941 31.5999Z" stroke="#8B52F6" stroke-miterlimit="10"/>
<path id="Vector_4" d="M20.3677 18.8803V6.24591C20.3677 5.22149 19.4146 4.45318 18.375 4.62392L10.7508 6.16054C9.97101 6.33127 9.45117 7.01421 9.45117 7.78252V20.5877" stroke="#8B52F6" stroke-miterlimit="10"/>
<path id="Vector_5" d="M9.45117 10.429L20.3677 7.95337" stroke="#8B52F6" stroke-miterlimit="10"/>
<path id="Vector_6" d="M25.2197 29.2099V16.4901C25.2197 15.9779 25.7396 15.7218 26.1728 15.8925C27.559 16.6608 29.465 18.6243 29.5517 20.2463C29.6383 21.5268 30.678 22.2951 31.3711 22.6366C31.7176 22.8073 31.631 23.2341 31.3711 23.3195C30.8513 23.4902 30.0715 23.661 29.2918 23.4902C27.8189 23.0634 26.0861 20.1609 25.2197 19.8194" stroke="#8B52F6" stroke-miterlimit="10"/>
</g>
</g>
</svg>
