<svg width="31" height="30" viewBox="0 0 31 30" fill="none" xmlns="http://www.w3.org/2000/svg">
<g id="exhibition">
<g id="Group">
<path id="Vector" d="M2.50466 2.51001C2.50466 2.51001 4.02414 9.64727 2.16699 14.8303C2.16699 14.8303 4.02413 21.1178 2.67348 27.4904" stroke="#8B52F6" stroke-miterlimit="10" stroke-linecap="round" stroke-linejoin="round"/>
<path id="Vector_2" d="M5.54395 5.48364V24.5163" stroke="#8B52F6" stroke-miterlimit="10" stroke-linecap="round" stroke-linejoin="round"/>
<path id="Vector_3" d="M27.829 27.4904C27.829 27.4904 26.3096 20.3531 28.1667 15.1701C28.1667 15.1701 26.3096 8.88256 27.6602 2.51001" stroke="#8B52F6" stroke-miterlimit="10" stroke-linecap="round" stroke-linejoin="round"/>
<path id="Vector_4" d="M24.7061 24.5163V5.48364" stroke="#8B52F6" stroke-miterlimit="10" stroke-linecap="round" stroke-linejoin="round"/>
<path id="Vector_5" d="M2.75781 27.66C2.75781 27.66 9.84872 26.1306 14.9981 27.9999C14.9981 27.9999 21.2448 26.1306 27.576 27.4901" stroke="#8B52F6" stroke-miterlimit="10" stroke-linecap="round" stroke-linejoin="round"/>
<path id="Vector_6" d="M5.62793 24.5164H24.6214" stroke="#8B52F6" stroke-miterlimit="10" stroke-linecap="round" stroke-linejoin="round"/>
<path id="Vector_7" d="M27.576 2.33987C27.576 2.33987 20.4851 3.86928 15.3357 2C15.3357 2 9.08898 3.86928 2.75781 2.5098" stroke="#8B52F6" stroke-miterlimit="10" stroke-linecap="round" stroke-linejoin="round"/>
<path id="Vector_8" d="M24.6214 5.48364H5.62793" stroke="#8B52F6" stroke-miterlimit="10" stroke-linecap="round" stroke-linejoin="round"/>
<path id="Vector_9" d="M11.1992 14.7452L15.5888 10.3269" stroke="#8B52F6" stroke-miterlimit="10" stroke-linecap="round" stroke-linejoin="round"/>
<path id="Vector_10" d="M10.7773 19.9281L19.0501 11.5164" stroke="#8B52F6" stroke-miterlimit="10" stroke-linecap="round" stroke-linejoin="round"/>
<path id="Vector_11" d="M14.9141 21.0328L19.3881 16.5295" stroke="#8B52F6" stroke-miterlimit="10" stroke-linecap="round" stroke-linejoin="round"/>
</g>
</g>
</svg>
