<svg width="31" height="30" viewBox="0 0 31 30" fill="none" xmlns="http://www.w3.org/2000/svg">
<g id="Frame 600">
<g id="Group">
<path id="Vector" d="M6.49225 5.9563C7.1163 5.9563 7.6222 5.35331 7.6222 4.6095C7.6222 3.86568 7.1163 3.2627 6.49225 3.2627C5.8682 3.2627 5.3623 3.86568 5.3623 4.6095C5.3623 5.35331 5.8682 5.9563 6.49225 5.9563Z" stroke="#8B52F6" stroke-miterlimit="10" stroke-linecap="round"/>
<path id="Vector_2" d="M21.1807 5.9563C21.8048 5.9563 22.3107 5.35331 22.3107 4.6095C22.3107 3.86568 21.8048 3.2627 21.1807 3.2627C20.5567 3.2627 20.0508 3.86568 20.0508 4.6095C20.0508 5.35331 20.5567 5.9563 21.1807 5.9563Z" stroke="#8B52F6" stroke-miterlimit="10" stroke-linecap="round"/>
<path id="Vector_3" d="M18.8507 12.522C19.4747 12.522 19.9806 11.919 19.9806 11.1752C19.9806 10.4314 19.4747 9.82837 18.8507 9.82837C18.2266 9.82837 17.7207 10.4314 17.7207 11.1752C17.7207 11.919 18.2266 12.522 18.8507 12.522Z" stroke="#8B52F6" stroke-miterlimit="10" stroke-linecap="round"/>
<path id="Vector_4" d="M6.49225 25.1482C7.1163 25.1482 7.6222 24.5452 7.6222 23.8014C7.6222 23.0576 7.1163 22.4546 6.49225 22.4546C5.8682 22.4546 5.3623 23.0576 5.3623 23.8014C5.3623 24.5452 5.8682 25.1482 6.49225 25.1482Z" stroke="#8B52F6" stroke-miterlimit="10" stroke-linecap="round"/>
<path id="Vector_5" d="M16.8028 27C17.4269 27 17.9327 26.397 17.9327 25.6532C17.9327 24.9094 17.4269 24.3064 16.8028 24.3064C16.1787 24.3064 15.6729 24.9094 15.6729 25.6532C15.6729 26.397 16.1787 27 16.8028 27Z" stroke="#8B52F6" stroke-miterlimit="10" stroke-linecap="round"/>
<path id="Vector_6" d="M27.043 23.8013C27.6671 23.8013 28.173 23.1983 28.173 22.4545C28.173 21.7106 27.6671 21.1077 27.043 21.1077C26.419 21.1077 25.9131 21.7106 25.9131 22.4545C25.9131 23.1983 26.419 23.8013 27.043 23.8013Z" stroke="#8B52F6" stroke-miterlimit="10" stroke-linecap="round"/>
<path id="Vector_7" d="M16.8023 15.9729C16.8023 15.9729 16.9436 9.65977 14.4012 6.37695C11.8588 3.09412 10.6582 3.34664 10.3051 4.27257C9.95203 5.1985 10.1639 6.71365 11.7882 7.30287C13.4125 7.8921 15.178 9.99648 16.8023 15.9729Z" stroke="#8B52F6" stroke-miterlimit="10" stroke-linecap="round" stroke-linejoin="round"/>
<path id="Vector_8" d="M15.1074 16.7308C15.1074 16.7308 11.435 11.1752 7.97459 11.8486C4.44352 12.4378 3.7373 15.2998 3.7373 15.9732C3.7373 16.6466 4.16102 17.5725 5.36159 17.5725C6.56216 17.5725 5.57345 14.458 8.89266 14.7106C12.1413 14.8789 14.048 15.5523 15.1074 16.7308Z" stroke="#8B52F6" stroke-miterlimit="10" stroke-linecap="round" stroke-linejoin="round"/>
<path id="Vector_9" d="M5.50293 21.0236C5.50293 21.0236 7.55094 17.2357 10.6583 18.1616" stroke="#8B52F6" stroke-miterlimit="10" stroke-linecap="round" stroke-linejoin="round"/>
<path id="Vector_10" d="M3.66699 7.8082C3.66699 7.8082 6.98621 6.7981 9.38734 9.23918" stroke="#8B52F6" stroke-miterlimit="10" stroke-linecap="round" stroke-linejoin="round"/>
<path id="Vector_11" d="M16.8027 2C16.8027 2 18.427 4.44108 18.2858 7.38721" stroke="#8B52F6" stroke-miterlimit="10" stroke-linecap="round" stroke-linejoin="round"/>
<path id="Vector_12" d="M16.167 18.7507C16.167 18.7507 11.2235 21.0235 11.4353 24.3063C11.6472 27.5891 13.9071 27.2524 14.2602 26.1581C14.5427 24.9797 14.8958 19.0033 16.167 18.7507Z" stroke="#8B52F6" stroke-miterlimit="10" stroke-linecap="round" stroke-linejoin="round"/>
<path id="Vector_13" d="M18.0029 18.7507C18.0029 18.7507 22.5227 22.0336 22.8052 24.8955C23.0171 27.7575 20.2628 27.1682 19.7685 25.2322C19.2035 23.2962 19.1329 19.6767 18.0029 18.7507Z" stroke="#8B52F6" stroke-miterlimit="10" stroke-linecap="round" stroke-linejoin="round"/>
<path id="Vector_14" d="M18.3564 16.7307C18.3564 16.7307 22.2406 10.2493 25.913 10.2493C27.961 10.2493 28.6672 11.3435 28.6672 12.1853C28.6672 13.027 28.2435 13.953 27.1135 13.953C25.913 13.8688 20.8988 13.7004 18.3564 16.7307Z" stroke="#8B52F6" stroke-miterlimit="10" stroke-linecap="round" stroke-linejoin="round"/>
<path id="Vector_15" d="M20.8281 9.3232C20.8281 9.3232 23.5117 5.9562 24.8536 6.04037" stroke="#8B52F6" stroke-miterlimit="10" stroke-linecap="round" stroke-linejoin="round"/>
<path id="Vector_16" d="M22.3105 17.2358C22.3105 17.2358 26.4772 17.4884 28.1721 19.5086" stroke="#8B52F6" stroke-miterlimit="10" stroke-linecap="round" stroke-linejoin="round"/>
<path id="Vector_17" d="M22.0996 18.9192C22.0996 18.9192 24.2183 21.2761 24.5714 23.1279" stroke="#8B52F6" stroke-miterlimit="10" stroke-linecap="round" stroke-linejoin="round"/>
<path id="Vector_18" d="M8.68164 25.6533C8.68164 25.6533 9.59971 21.5287 11.0121 21.0237" stroke="#8B52F6" stroke-miterlimit="10" stroke-linecap="round" stroke-linejoin="round"/>
</g>
</g>
</svg>
