<svg width="47" height="48" viewBox="0 0 47 48" fill="none" xmlns="http://www.w3.org/2000/svg">
<g id="Group 1334">
<rect id="Rectangle 154" x="10.0322" y="27.0259" width="23.2768" height="14.7167" transform="rotate(-45 10.0322 27.0259)" stroke="white" stroke-width="2" stroke-linejoin="round"/>
<path id="Subtract" d="M3.53554 32.4999L2.82843 33.207L3.53554 32.4999ZM31.965 4.07045L31.2579 4.77755L31.965 4.07045ZM33.9794 6.08484L34.6865 6.79195C34.874 6.60441 34.9794 6.35006 34.9794 6.08484C34.9794 5.81963 34.874 5.56527 34.6865 5.37773L33.9794 6.08484ZM41.3794 13.4849L42.0865 12.7777C41.696 12.3872 41.0628 12.3872 40.6723 12.7777L41.3794 13.4849ZM43.3939 15.4994L44.101 14.7923L43.3939 15.4994ZM14.9645 43.9288L14.2574 44.636L14.2574 44.636L14.9645 43.9288ZM12.9501 41.9144L12.243 41.2073C11.8524 41.5978 11.8524 42.231 12.243 42.6215L12.9501 41.9144ZM5.55005 34.5144L4.84294 35.2215C5.23347 35.612 5.86663 35.612 6.25716 35.2215L5.55005 34.5144ZM2.82843 24.7217C0.48528 27.0649 0.485285 30.8639 2.82843 33.207L4.24264 31.7928C2.68055 30.2307 2.68054 27.698 4.24264 26.1359L2.82843 24.7217ZM24.1868 3.36334L2.82843 24.7217L4.24264 26.1359L25.601 4.77755L24.1868 3.36334ZM32.6721 3.36334C30.3289 1.02019 26.5299 1.02019 24.1868 3.36334L25.601 4.77755C27.1631 3.21546 29.6958 3.21546 31.2579 4.77755L32.6721 3.36334ZM34.6865 5.37773L32.6721 3.36334L31.2579 4.77755L33.2723 6.79195L34.6865 5.37773ZM34.6863 6.79209L34.6865 6.79195L33.2723 5.37773L33.2721 5.37787L34.6863 6.79209ZM35.3938 12.0705C33.5933 10.27 33.5569 7.92155 34.6863 6.79209L33.2721 5.37787C31.0961 7.55392 31.6931 11.1982 33.9796 13.4847L35.3938 12.0705ZM40.6721 12.7779C39.5427 13.9073 37.1942 13.8709 35.3938 12.0705L33.9796 13.4847C36.266 15.7711 39.9103 16.3681 42.0863 14.1921L40.6721 12.7779ZM40.6723 12.7777L40.6721 12.7779L42.0863 14.1921L42.0865 14.192L40.6723 12.7777ZM44.101 14.7923L42.0865 12.7777L40.6723 14.192L42.6868 16.2065L44.101 14.7923ZM44.101 23.2776C46.4442 20.9344 46.4442 17.1354 44.101 14.7923L42.6868 16.2065C44.2489 17.7686 44.2489 20.3013 42.6868 21.8634L44.101 23.2776ZM22.7427 44.636L44.101 23.2776L42.6868 21.8634L21.3285 43.2217L22.7427 44.636ZM14.2574 44.636C16.6005 46.9791 20.3995 46.9791 22.7427 44.636L21.3285 43.2217C19.7664 44.7838 17.2337 44.7838 15.6716 43.2217L14.2574 44.636ZM12.243 42.6215L14.2574 44.636L15.6716 43.2217L13.6572 41.2073L12.243 42.6215ZM11.5355 35.9289C13.336 37.7294 13.3724 40.0778 12.243 41.2073L13.6572 42.6215C15.8332 40.4455 15.2362 36.8012 12.9497 34.5147L11.5355 35.9289ZM6.25716 35.2215C7.38662 34.0921 9.73505 34.1285 11.5355 35.9289L12.9497 34.5147C10.6633 32.2283 7.01899 31.6312 4.84295 33.8073L6.25716 35.2215ZM6.25716 35.2215C6.25716 35.2215 6.25716 35.2215 6.25716 35.2215C6.25716 35.2215 6.25716 35.2215 6.25716 35.2215L4.84295 33.8073C4.84295 33.8073 4.84294 33.8073 4.84294 33.8073C4.84294 33.8073 4.84294 33.8073 4.84294 33.8073L6.25716 35.2215ZM2.82843 33.207L4.84294 35.2215L6.25716 33.8073L4.24264 31.7928L2.82843 33.207Z" fill="white"/>
</g>
</svg>
