<svg width="47" height="48" viewBox="0 0 47 48" fill="none" xmlns="http://www.w3.org/2000/svg">
<g id="Group 1334">
<rect id="Rectangle 154" x="10.032" y="27.0264" width="23.2768" height="14.7167" transform="rotate(-45 10.032 27.0264)" stroke="#8B52F6" stroke-width="2" stroke-linejoin="round"/>
<path id="Subtract" d="M3.53554 32.5001L2.82843 33.2072L3.53554 32.5001ZM31.965 4.07069L32.6721 3.36358L31.965 4.07069ZM33.9794 6.08508L34.6865 6.79219C35.077 6.40167 35.077 5.7685 34.6865 5.37798L33.9794 6.08508ZM41.3792 13.4852L42.0863 14.1923L41.3792 13.4852ZM41.3794 13.4851L42.0865 12.778C41.8989 12.5905 41.6446 12.4851 41.3794 12.4851C41.1142 12.4851 40.8598 12.5905 40.6723 12.778L41.3794 13.4851ZM43.3939 15.4996L44.101 14.7925L43.3939 15.4996ZM43.3939 22.5707L42.6868 21.8636L43.3939 22.5707ZM22.0356 43.9291L22.7427 44.6362L22.0356 43.9291ZM14.9645 43.9291L14.2574 44.6362L14.2574 44.6362L14.9645 43.9291ZM12.9501 41.9147L12.243 41.2075C11.8524 41.5981 11.8524 42.2312 12.243 42.6218L12.9501 41.9147ZM5.55005 34.5146L4.84294 35.2218C5.23347 35.6123 5.86663 35.6123 6.25716 35.2218L5.55005 34.5146ZM2.82843 24.722C0.48528 27.0651 0.485285 30.8641 2.82843 33.2072L4.24264 31.793C2.68055 30.2309 2.68054 27.6983 4.24264 26.1362L2.82843 24.722ZM24.1868 3.36358L2.82843 24.722L4.24264 26.1362L25.601 4.7778L24.1868 3.36358ZM32.6721 3.36358C30.3289 1.02044 26.5299 1.02044 24.1868 3.36358L25.601 4.7778C27.1631 3.2157 29.6958 3.2157 31.2579 4.7778L32.6721 3.36358ZM34.6865 5.37798L32.6721 3.36358L31.2579 4.7778L33.2723 6.79219L34.6865 5.37798ZM34.6863 6.79233L34.6865 6.79219L33.2723 5.37798L33.2721 5.37812L34.6863 6.79233ZM35.3938 12.0707C33.5933 10.2702 33.5569 7.92179 34.6863 6.79233L33.2721 5.37812C31.0961 7.55417 31.6931 11.1985 33.9796 13.4849L35.3938 12.0707ZM40.6721 12.7781C39.5427 13.9076 37.1942 13.8712 35.3938 12.0707L33.9796 13.4849C36.266 15.7713 39.9103 16.3684 42.0863 14.1923L40.6721 12.7781ZM40.6723 12.778L40.6721 12.7781L42.0863 14.1923L42.0865 14.1922L40.6723 12.778ZM44.101 14.7925L42.0865 12.778L40.6723 14.1922L42.6868 16.2068L44.101 14.7925ZM44.101 23.2778C46.4442 20.9347 46.4442 17.1357 44.101 14.7925L42.6868 16.2068C44.2489 17.7688 44.2489 20.3015 42.6868 21.8636L44.101 23.2778ZM22.7427 44.6362L44.101 23.2778L42.6868 21.8636L21.3285 43.222L22.7427 44.6362ZM14.2574 44.6362C16.6005 46.9793 20.3995 46.9793 22.7427 44.6362L21.3285 43.222C19.7664 44.7841 17.2337 44.7841 15.6716 43.222L14.2574 44.6362ZM12.243 42.6218L14.2574 44.6362L15.6716 43.222L13.6572 41.2075L12.243 42.6218ZM11.5355 35.9292C13.336 37.7297 13.3724 40.0781 12.243 41.2075L13.6572 42.6218C15.8332 40.4457 15.2362 36.8014 12.9497 34.515L11.5355 35.9292ZM6.25716 35.2218C7.38662 34.0923 9.73505 34.1287 11.5355 35.9292L12.9497 34.515C10.6633 32.2285 7.01899 31.6315 4.84295 33.8075L6.25716 35.2218ZM6.25716 35.2218C6.25716 35.2218 6.25716 35.2218 6.25716 35.2218C6.25716 35.2218 6.25716 35.2218 6.25716 35.2218L4.84295 33.8075C4.84295 33.8075 4.84294 33.8075 4.84294 33.8075C4.84294 33.8075 4.84294 33.8075 4.84294 33.8075L6.25716 35.2218ZM2.82843 33.2072L4.84294 35.2218L6.25716 33.8075L4.24264 31.793L2.82843 33.2072Z" fill="#8B52F6"/>
</g>
</svg>
