<svg width="130" height="52" viewBox="0 0 130 52" fill="none" xmlns="http://www.w3.org/2000/svg">
<rect width="130" height="52" rx="26" fill="url(#paint0_linear_1700_1015)"/>
<rect width="130" height="52" rx="26" fill="url(#paint1_radial_1700_1015)"/>
<path d="M39.386 32V19.31H44.93C46.262 19.31 47.294 19.604 48.026 20.192C48.758 20.768 49.124 21.572 49.124 22.604C49.124 23.288 48.95 23.876 48.602 24.368C48.254 24.86 47.774 25.22 47.162 25.448C47.882 25.652 48.44 26.012 48.836 26.528C49.244 27.032 49.448 27.674 49.448 28.454C49.448 29.582 49.064 30.458 48.296 31.082C47.54 31.694 46.484 32 45.128 32H39.386ZM41.6 24.692H44.534C46.106 24.692 46.892 24.086 46.892 22.874C46.892 21.662 46.106 21.056 44.534 21.056H41.6V24.692ZM41.6 30.254H44.84C46.424 30.254 47.216 29.618 47.216 28.346C47.216 27.074 46.424 26.438 44.84 26.438H41.6V30.254ZM55.7026 32.18C54.7906 32.18 53.9986 31.994 53.3266 31.622C52.6546 31.25 52.1326 30.722 51.7606 30.038C51.3886 29.342 51.2026 28.526 51.2026 27.59C51.2026 26.654 51.3886 25.844 51.7606 25.16C52.1326 24.476 52.6546 23.948 53.3266 23.576C53.9986 23.204 54.7906 23.018 55.7026 23.018C56.6146 23.018 57.4066 23.204 58.0786 23.576C58.7506 23.948 59.2726 24.476 59.6446 25.16C60.0166 25.844 60.2026 26.654 60.2026 27.59C60.2026 28.526 60.0166 29.342 59.6446 30.038C59.2726 30.722 58.7506 31.25 58.0786 31.622C57.4066 31.994 56.6146 32.18 55.7026 32.18ZM55.7026 30.47C56.3746 30.47 56.9146 30.23 57.3226 29.75C57.7306 29.258 57.9346 28.538 57.9346 27.59C57.9346 26.63 57.7306 25.916 57.3226 25.448C56.9146 24.968 56.3746 24.728 55.7026 24.728C55.0306 24.728 54.4906 24.968 54.0826 25.448C53.6746 25.916 53.4706 26.63 53.4706 27.59C53.4706 28.538 53.6746 29.258 54.0826 29.75C54.4906 30.23 55.0306 30.47 55.7026 30.47ZM62.2878 32V23.198H64.3218V29.066L68.7318 23.198H70.6038V32H68.5698V26.132L64.1598 32H62.2878ZM66.4278 22.082C65.5518 22.082 64.8318 21.86 64.2678 21.416C63.7038 20.96 63.3318 20.348 63.1518 19.58L64.3038 19.184C64.5078 19.76 64.7778 20.18 65.1138 20.444C65.4618 20.708 65.9058 20.84 66.4458 20.84C66.9978 20.84 67.4418 20.708 67.7778 20.444C68.1138 20.168 68.3958 19.754 68.6238 19.202L69.7218 19.58C69.4698 20.408 69.0558 21.032 68.4798 21.452C67.9158 21.872 67.2318 22.082 66.4278 22.082ZM75.005 32V24.962H71.999V23.198H80.279V24.962H77.255V32H75.005ZM81.6589 32V23.198H83.6929V29.066L88.1029 23.198H89.9749V32H87.9409V26.132L83.5309 32H81.6589Z" fill="white"/>
<defs>
<linearGradient id="paint0_linear_1700_1015" x1="43.6332" y1="-27.1954" x2="125.565" y2="82.9867" gradientUnits="userSpaceOnUse">
<stop offset="0.161458" stop-color="#8B52F6"/>
<stop offset="0.739583" stop-color="#3A66FF"/>
</linearGradient>
<radialGradient id="paint1_radial_1700_1015" cx="0" cy="0" r="1" gradientUnits="userSpaceOnUse" gradientTransform="translate(122.803 52) rotate(135.855) scale(80.2393 140.491)">
<stop stop-color="#EA3057"/>
<stop offset="1" stop-color="#EA3057" stop-opacity="0"/>
</radialGradient>
</defs>
</svg>
