<svg width="36" height="36" viewBox="0 0 36 36" fill="none" xmlns="http://www.w3.org/2000/svg">
<g id="ok" clip-path="url(#clip0_1520_3087)">
<g id="Group">
<path id="Vector" d="M18 36C27.9411 36 36 27.9411 36 18C36 8.05887 27.9411 0 18 0C8.05887 0 0 8.05887 0 18C0 27.9411 8.05887 36 18 36Z" fill="white"/>
</g>
<path id="Vector_2" fill-rule="evenodd" clip-rule="evenodd" d="M22.4999 16C21.2999 17.2 19.6999 17.9 17.9999 17.9C16.1999 17.9 14.5999 17.2 13.4999 16C12.2999 14.8 11.5999 13.2 11.5999 11.5C11.5999 9.7 12.2999 8.1 13.4999 7C14.5999 5.8 16.1999 5 17.9999 5C19.7999 5 21.3999 5.7 22.4999 6.9C23.6999 8.1 24.3999 9.7 24.3999 11.4C24.3999 13.2 23.6999 14.8 22.4999 16ZM17.9999 8.5C17.1999 8.5 16.4999 8.8 15.8999 9.4C15.3999 9.9 14.9999 10.7 14.9999 11.5C14.9999 12.3 15.2999 13 15.8999 13.6C16.3999 14.1 17.1999 14.5 17.9999 14.5C18.7999 14.5 19.4999 14.2 20.0999 13.6C20.5999 13.1 20.9999 12.3 20.9999 11.5C20.9999 10.7 20.6999 10 20.0999 9.4C19.4999 8.9 18.7999 8.5 17.9999 8.5ZM24.7999 17.9C24.6999 17.7 24.4999 17.7 24.2999 17.8C22.4999 19.3 20.2999 20.3 17.9999 20.3C15.6999 20.3 13.4999 19.3 11.6999 17.8C11.5999 17.7 11.3999 17.7 11.2999 17.9L9.39991 20.5C9.29991 20.6 9.29991 20.8 9.49991 20.9C11.0999 22.2 12.8999 23.1 14.8999 23.5L11.2999 30.5C11.1999 30.7 11.2999 30.9 11.5999 30.9H15.4999C15.5999 30.9 15.6999 30.8 15.7999 30.7L17.9999 25L20.3999 30.8C20.4999 30.9 20.5999 31 20.6999 31H24.5999C24.7999 31 24.9999 30.8 24.8999 30.6L21.2999 23.6C23.1999 23.1 25.0999 22.3 26.6999 21C26.7999 20.9 26.8999 20.7 26.7999 20.6L24.7999 17.9Z" fill="#191919"/>
</g>
<defs>
<clipPath id="clip0_1520_3087">
<rect width="36" height="36" fill="white"/>
</clipPath>
</defs>
</svg>
