<svg width="13" height="18" viewBox="0 0 13 18" fill="none" xmlns="http://www.w3.org/2000/svg">
<path fill-rule="evenodd" clip-rule="evenodd" d="M6.37132 8.99996C7.93607 8.99996 9.20455 7.73148 9.20455 6.16673C9.20455 4.60198 7.93607 3.3335 6.37132 3.3335C4.80657 3.3335 3.53809 4.60198 3.53809 6.16673C3.53809 7.73148 4.80657 8.99996 6.37132 8.99996Z" stroke="white" stroke-opacity="0.5"/>
<path fill-rule="evenodd" clip-rule="evenodd" d="M6.37105 0.500488C9.50055 0.500488 12.0375 3.03745 12.0375 6.16695C12.0375 8.74103 8.20396 15.1955 6.84326 17.2468C6.73827 17.405 6.56098 17.5002 6.37105 17.5002C6.18113 17.5002 6.00383 17.405 5.89885 17.2468C4.53814 15.1955 0.70459 8.74103 0.70459 6.16695C0.70459 3.03745 3.24155 0.500488 6.37105 0.500488Z" stroke="white" stroke-opacity="0.5"/>
</svg>
