<svg width="24" height="23" viewBox="0 0 24 23" fill="none" xmlns="http://www.w3.org/2000/svg">
<path d="M11.1531 1.34856C11.5452 0.724309 12.4548 0.72431 12.8469 1.34856L15.7277 5.93604C15.8699 6.16248 16.0968 6.32254 16.3579 6.38048L21.7334 7.57359C22.4823 7.73981 22.7729 8.65261 22.2579 9.22117L18.6854 13.1652C18.4978 13.3722 18.4054 13.6484 18.4306 13.9267L18.9055 19.1698C18.973 19.9155 18.2271 20.4682 17.5334 20.1865L12.3762 18.0927C12.135 17.9948 11.865 17.9948 11.6238 18.0927L6.46664 20.1865C5.77286 20.4682 5.02701 19.9155 5.09454 19.1698L5.56936 13.9267C5.59456 13.6484 5.50218 13.3722 5.31459 13.1652L1.7421 9.22117C1.2271 8.65261 1.51766 7.73981 2.26658 7.57359L7.64213 6.38048C7.90316 6.32254 8.13012 6.16248 8.27232 5.93604L11.1531 1.34856Z" fill="white"/>
<path d="M11.7626 1.73078L11.7627 1.73065C12.0729 1.19634 12.8449 1.196 13.1551 1.73078L11.7626 1.73078ZM11.7626 1.73078L9.2432 6.07276C9.2432 6.07277 9.2432 6.07278 9.24319 6.07279C8.80844 6.82195 8.05696 7.33328 7.20043 7.46263L7.20041 7.46263L3.01668 8.09453L3.01659 8.09454C2.32912 8.19851 2.08773 9.06658 2.62333 9.51034L2.62334 9.51035L5.67167 12.0358C5.67168 12.0358 5.67168 12.0358 5.67168 12.0358C6.47269 12.6995 6.84931 13.7463 6.65474 14.7681L5.80085 19.2523L5.80084 19.2523C5.67474 19.9148 6.3701 20.4292 6.96662 20.1152L6.96664 20.1151L11.1289 17.9235C11.9614 17.4852 12.9564 17.4852 13.7889 17.9235L17.9511 20.1151C18.5475 20.4292 19.2431 19.9149 19.1169 19.2523L18.263 14.7681L18.263 14.7681C18.0684 13.7463 18.445 12.6995 19.246 12.0359C19.2461 12.0358 19.2461 12.0358 19.2461 12.0358L22.2944 9.51035L21.9755 9.12532L22.2945 9.51035C22.8302 9.06648 22.5885 8.19847 21.9011 8.09454L21.901 8.09453L17.7173 7.46263L17.7173 7.46263C16.8608 7.33329 16.1094 6.82197 15.6746 6.07278C15.6746 6.07277 15.6746 6.07277 15.6746 6.07276L13.1552 1.73083L11.7626 1.73078ZM16.3923 5.65626L16.3923 5.65632C16.7008 6.18774 17.2338 6.55036 17.8413 6.64211L22.025 7.27401C23.4216 7.48499 23.9114 9.2483 22.8238 10.1494L19.7755 12.6749C19.2073 13.1456 18.9402 13.8881 19.0782 14.6128L19.0782 14.6129L19.9321 19.0971C20.1882 20.4422 18.7761 21.4874 17.5645 20.8494L13.4022 18.6578C12.8118 18.3469 12.106 18.3469 11.5156 18.6578L11.5155 18.6578L7.35321 20.8494L7.58616 21.2918L7.3532 20.8494C6.14166 21.4874 4.72953 20.4423 4.98569 19.097L5.83958 14.6129L5.3484 14.5193L5.83958 14.6129C5.97759 13.8881 5.71043 13.1456 5.1423 12.6749L5.14228 12.6749L2.09394 10.1494C1.00633 9.24831 1.49618 7.485 2.89275 7.27401C2.89276 7.27401 2.89276 7.27401 2.89277 7.27401L7.07648 6.64211C7.68399 6.55036 8.21705 6.18776 8.52543 5.65627C8.52543 5.65626 8.52544 5.65625 8.52544 5.65624L11.0449 1.31431L10.6125 1.06336L11.0449 1.3143C11.6749 0.228564 13.2429 0.228567 13.8729 1.3143L16.3923 5.65626Z" stroke="#9A9A9A"/>
</svg>
