<svg width="31" height="30" viewBox="0 0 31 30" fill="none" xmlns="http://www.w3.org/2000/svg">
<circle cx="15.5" cy="15" r="15" fill="#8B52F6"/>
<path fill-rule="evenodd" clip-rule="evenodd" d="M19.2172 17.3653L24.2193 22.3674C24.593 22.7416 24.593 23.3478 24.2193 23.722C23.8425 24.0894 23.2415 24.0894 22.8647 23.722L17.8626 18.7199C14.8844 20.9854 10.6601 20.556 8.19873 17.7375C5.73734 14.919 5.88069 10.6753 8.52668 8.02936C11.1727 5.38337 15.4163 5.24002 18.2348 7.70142C21.0534 10.1628 21.4828 14.3871 19.2172 17.3653ZM13.5818 7.91103C10.7257 7.91103 8.4104 10.2264 8.4104 13.0825C8.41377 15.9372 10.7271 18.2505 13.5818 18.2539C16.4379 18.2539 18.7532 15.9386 18.7532 13.0825C18.7532 10.2264 16.4379 7.91103 13.5818 7.91103Z" fill="white"/>
<mask id="mask0_1436_5801" style="mask-type:alpha" maskUnits="userSpaceOnUse" x="5" y="5" width="21" height="20">
<path fill-rule="evenodd" clip-rule="evenodd" d="M19.5484 17.5768L24.9926 23.021C25.3993 23.4283 25.3993 24.088 24.9926 24.4953C24.5826 24.8953 23.9284 24.8953 23.5184 24.4953L18.0741 19.0511C14.8327 21.5169 10.235 21.0495 7.55604 17.9819C4.87708 14.9143 5.0331 10.2955 7.91296 7.41565C10.7928 4.53579 15.4116 4.37977 18.4792 7.05872C21.5469 9.73768 22.0142 14.3354 19.5484 17.5768ZM13.4149 7.28696C10.3064 7.28696 7.78641 9.80693 7.78641 12.9155C7.79008 16.0225 10.3079 18.5403 13.4149 18.544C16.5235 18.544 19.0434 16.024 19.0434 12.9155C19.0434 9.80693 16.5235 7.28696 13.4149 7.28696Z" fill="white"/>
</mask>
<g mask="url(#mask0_1436_5801)">
</g>
</svg>
