<svg width="31" height="30" viewBox="0 0 31 30" fill="none" xmlns="http://www.w3.org/2000/svg">
<g id="Frame 601">
<g id="Group">
<path id="Vector" d="M26.7162 5.3557H2.94977C2.06055 5.3557 1.33301 4.60067 1.33301 3.67785C1.33301 2.75503 2.06055 2 2.94977 2H26.7162C27.6055 2 28.333 2.75503 28.333 3.67785C28.333 4.60067 27.6055 5.3557 26.7162 5.3557Z" stroke="#8B52F6" stroke-miterlimit="10"/>
<path id="Vector_2" d="M26.6358 5.35571L23.7256 9.80202C23.4023 10.3054 23.1598 10.8926 23.0789 11.5638L21.6238 25.406C21.543 26.3289 20.8155 27 19.9262 27H9.65977C8.77055 27 8.04301 26.3289 7.96217 25.406L6.50708 11.5638C6.42624 10.9765 6.26457 10.3054 5.86037 9.80202L2.9502 5.35571" stroke="#8B52F6" stroke-miterlimit="10"/>
<path id="Vector_3" d="M17.6623 26.9163L6.42578 11.3123" stroke="#8B52F6" stroke-miterlimit="10"/>
<path id="Vector_4" d="M21.785 23.5603L11.5186 9.29858" stroke="#8B52F6" stroke-miterlimit="10"/>
<path id="Vector_5" d="M22.6742 15.7583L18.0664 9.29858" stroke="#8B52F6" stroke-miterlimit="10"/>
<path id="Vector_6" d="M11.1953 26.8324L7.55762 21.7988" stroke="#8B52F6" stroke-miterlimit="10"/>
<path id="Vector_7" d="M11.9229 26.9162L23.0785 11.48" stroke="#8B52F6" stroke-miterlimit="10"/>
<path id="Vector_8" d="M7.7998 23.6442L18.0663 9.29858" stroke="#8B52F6" stroke-miterlimit="10"/>
<path id="Vector_9" d="M6.91113 15.7583L11.5189 9.29858" stroke="#8B52F6" stroke-miterlimit="10"/>
<path id="Vector_10" d="M18.0664 26.8322L22.0275 21.2114" stroke="#8B52F6" stroke-miterlimit="10"/>
<path id="Vector_11" d="M11.5186 5.60742V9.2987" stroke="#8B52F6" stroke-miterlimit="10"/>
<path id="Vector_12" d="M18.0664 5.60742V9.2987" stroke="#8B52F6" stroke-miterlimit="10"/>
</g>
</g>
</svg>
