<svg width="31" height="30" viewBox="0 0 31 30" fill="none" xmlns="http://www.w3.org/2000/svg">
<g id="Frame 602">
<g id="Group">
<path id="Vector" d="M16.9404 3C17.6846 4.95065 18.5703 6.28316 20.1413 7.90871C21.7951 9.53425 23.6969 10.7534 25.764 11.4849" stroke="#8B52F6" stroke-miterlimit="10" stroke-linecap="round" stroke-linejoin="round"/>
<path id="Vector_2" d="M21.0502 13.6792C24.6122 13.6792 27.4998 10.8409 27.4998 7.33962C27.4998 3.83835 24.6122 1 21.0502 1C17.4882 1 14.6006 3.83835 14.6006 7.33962C14.6006 10.8409 17.4882 13.6792 21.0502 13.6792Z" stroke="#8B52F6" stroke-miterlimit="10" stroke-linecap="round" stroke-linejoin="round"/>
<path id="Vector_3" d="M19.3138 13.7604L9.47399 23.1886C8.151 24.489 5.91842 24.489 4.59543 23.1073C3.27243 21.8069 3.27243 19.6124 4.67812 18.3119L14.5179 8.88379" stroke="#8B52F6" stroke-miterlimit="10" stroke-linecap="round" stroke-linejoin="round"/>
<path id="Vector_4" d="M15.2627 4.49487C16.0896 6.28297 17.1645 7.90852 18.6529 9.37151C20.2239 10.9158 22.0431 12.1349 23.9449 13.029" stroke="#8B52F6" stroke-miterlimit="10" stroke-linecap="round" stroke-linejoin="round"/>
<path id="Vector_5" d="M9.5566 23.1075C8.39898 22.376 7.24138 21.4819 6.16644 20.5066C5.58763 19.9376 5.00882 19.2874 4.5127 18.6372" stroke="#8B52F6" stroke-miterlimit="10" stroke-linecap="round" stroke-linejoin="round"/>
<path id="Vector_6" d="M10.3008 17.4181L12.6987 15.061" stroke="#8B52F6" stroke-miterlimit="10" stroke-linecap="round" stroke-linejoin="round"/>
<path id="Vector_7" d="M20.3889 21.8069L19.8928 21.3192C18.9832 20.4252 17.4948 20.4252 16.5853 21.3192L9.63954 28.1465C8.48191 29.2844 6.66279 29.2844 5.50517 28.1465L4.18217 26.8461C3.27261 25.952 3.27261 24.489 4.18217 23.595L4.59561 23.1886" stroke="#8B52F6" stroke-miterlimit="10" stroke-linecap="round" stroke-linejoin="round"/>
</g>
</g>
</svg>
