<svg width="44" height="44" viewBox="0 0 44 44" fill="none" xmlns="http://www.w3.org/2000/svg">
<path fill-rule="evenodd" clip-rule="evenodd" d="M19.2248 7.54147C20.4612 5.41065 23.5383 5.41066 24.7747 7.54148L28.5612 14.067C28.9102 14.6685 29.5135 15.0789 30.2011 15.1828L36.4888 16.1325C39.2296 16.5464 40.191 20.007 38.0565 21.7754L33.4752 25.571C32.8322 26.1037 32.5298 26.944 32.686 27.7644L33.9693 34.5036C34.472 37.1436 31.7007 39.1947 29.3228 37.9426L23.0674 34.6489C22.3991 34.297 21.6004 34.297 20.9321 34.6489L14.6767 37.9426C12.2988 39.1947 9.52749 37.1436 10.0302 34.5036L11.3135 27.7644C11.4697 26.9441 11.1673 26.1037 10.5243 25.571L5.94299 21.7754C3.80847 20.007 4.76987 16.5464 7.5107 16.1325L13.7984 15.1828C14.486 15.0789 15.0893 14.6685 15.4383 14.067L19.2248 7.54147ZM22.3962 8.92166C22.2195 8.61726 21.78 8.61726 21.6033 8.92166L17.8168 15.4472C17.049 16.7704 15.7218 17.6735 14.2091 17.9019L7.9214 18.8516C7.52985 18.9108 7.39251 19.4051 7.69744 19.6578L12.2788 23.4533C13.6934 24.6254 14.3586 26.4741 14.0149 28.2788L12.7316 35.0181C12.6598 35.3952 13.0557 35.6882 13.3954 35.5093L19.6508 32.2156C21.1211 31.4414 22.8784 31.4415 24.3487 32.2156L30.6041 35.5093C30.9438 35.6882 31.3397 35.3952 31.2679 35.0181L29.9846 28.2788C29.6409 26.4741 30.3061 24.6254 31.7207 23.4533L36.3021 19.6578C36.607 19.4051 36.4697 18.9108 36.0781 18.8516L29.7904 17.9019C28.2777 17.6735 26.9505 16.7704 26.1827 15.4472L22.3962 8.92166Z" fill="black"/>
</svg>
