<svg width="30" height="30" viewBox="0 0 30 30" fill="none" xmlns="http://www.w3.org/2000/svg">
<g id="Frame 605">
<g id="Group">
<g id="Group_2">
<path id="Vector" d="M2.61328 19.6067C2.61328 19.6067 10.4678 15.2963 13.3432 10.6143C13.3432 10.6143 19.8652 19.3095 16.0081 24.5117C12.1509 29.714 2.61328 19.6067 2.61328 19.6067Z" stroke="#8B52F6" stroke-miterlimit="10" stroke-linecap="round" stroke-linejoin="round"/>
<path id="Vector_2" d="M1 24.2887H2.19219C2.82336 24.2887 3.24415 23.6198 3.03376 22.951C2.82337 22.3564 3.17402 21.7619 3.73506 21.6876L4.64674 21.4646" stroke="#8B52F6" stroke-miterlimit="10" stroke-linecap="round" stroke-linejoin="round"/>
<path id="Vector_3" d="M8.01349 21.3903C7.94336 21.2417 7.94336 21.0187 7.94336 20.8701C7.94336 19.9783 8.64467 19.2351 9.48623 19.2351C9.76674 19.2351 10.0473 19.3094 10.3278 19.4581" stroke="#8B52F6" stroke-miterlimit="10" stroke-linecap="round" stroke-linejoin="round"/>
<path id="Vector_4" d="M11.8006 18.3435C11.7305 18.1948 11.7305 17.9719 11.7305 17.8232C11.7305 16.9314 12.4318 16.1882 13.2733 16.1882C13.5539 16.1882 13.8344 16.2625 14.1149 16.4112" stroke="#8B52F6" stroke-miterlimit="10" stroke-linecap="round" stroke-linejoin="round"/>
<path id="Vector_5" d="M14.3954 19.6069C14.5356 19.8299 14.9564 21.3906 13.9044 22.5053C12.7824 23.7687 11.3798 22.8026 10.959 22.654" stroke="#8B52F6" stroke-miterlimit="10" stroke-linecap="round" stroke-linejoin="round"/>
</g>
<g id="Group_3">
<path id="Vector_6" d="M13 11.1739C13.7013 7.75528 15.0262 4 15.0262 4C15.0262 4 21.5482 10.2427 26.7378 11.4318C26.7378 11.4318 22.3197 19.1609 17.1301 19.2352" stroke="#8B52F6" stroke-miterlimit="10" stroke-linecap="round" stroke-linejoin="round"/>
<path id="Vector_7" d="M10.3271 4L10.7479 5.11477C10.9583 5.78363 11.7298 5.93227 12.2207 5.48636C12.6414 5.11477 13.2726 5.18909 13.6233 5.70932L14.1142 6.52681" stroke="#8B52F6" stroke-miterlimit="10" stroke-linecap="round" stroke-linejoin="round"/>
<path id="Vector_8" d="M27.9992 16.2625L27.3681 16.3368C26.807 16.4111 26.3161 15.9652 26.3161 15.3707C26.246 14.8504 25.8252 14.4045 25.3343 14.4045H24.7031" stroke="#8B52F6" stroke-miterlimit="10" stroke-linecap="round" stroke-linejoin="round"/>
<path id="Vector_9" d="M15.377 9.94518C15.5172 9.79654 15.6575 9.72222 15.7977 9.6479C16.5692 9.35063 17.4808 9.72222 17.7614 10.614C17.9016 10.9113 17.9016 11.2086 17.8315 11.5059" stroke="#8B52F6" stroke-miterlimit="10" stroke-linecap="round" stroke-linejoin="round"/>
<path id="Vector_10" d="M19.374 12.621C19.5143 12.4723 19.6545 12.398 19.7948 12.3237C20.5662 12.0264 21.4779 12.398 21.7585 13.2898C21.8987 13.5871 21.8987 13.8844 21.8286 14.1816" stroke="#8B52F6" stroke-miterlimit="10" stroke-linecap="round" stroke-linejoin="round"/>
<path id="Vector_11" d="M18.0419 16.931C18.0419 16.4851 18.3925 14.7758 16.9198 14.0326C16.3588 13.8097 15.7977 13.8097 15.377 13.9583" stroke="#8B52F6" stroke-miterlimit="10" stroke-linecap="round" stroke-linejoin="round"/>
</g>
</g>
</g>
</svg>
