<svg width="36" height="36" viewBox="0 0 36 36" fill="none" xmlns="http://www.w3.org/2000/svg">
<g id="tt" clip-path="url(#clip0_1520_3078)">
<g id="Group">
<path id="Vector" d="M18 36C27.9411 36 36 27.9411 36 18C36 8.05887 27.9411 0 18 0C8.05887 0 0 8.05887 0 18C0 27.9411 8.05887 36 18 36Z" fill="white"/>
</g>
<path id="Vector_2" d="M27.5 12.4001C27.5 12.3001 27.5 12.3001 27.4 12.3001C27.2 12.3001 26.9001 12.3001 26.7001 12.2001C25.8001 12.1001 22.9 10.6001 22.4 8.1001C22.4 8.1001 22.3 7.4001 22.3 7.2001C22.3 7.1001 22.3 7.1001 22.2 7.1001H22.1C21 7.1001 19.8 7.1001 18.7 7.1001C18.5 7.1001 18.5 7.1001 18.5 7.3001C18.5 12.2001 18.5 17.1001 18.5 22.0001C18.5 22.2001 18.5 22.4001 18.5 22.5001C18.3 23.4001 17.8 24.2001 17 24.7001C16.3 25.1001 15.5 25.3001 14.7 25.1001C14.4 25.0001 14.2 25.0001 14 24.9001C14 24.9001 14 24.9001 13.9 24.8001C13.8 24.7001 13.7 24.7001 13.6 24.6001C12.6 23.9001 12.1 22.9001 12.2 21.6001C12.4 20.3001 13.1 19.5001 14.3 19.0001C14.7 18.9001 15 18.8001 15.4 18.8001C15.6 18.8001 15.9 18.8001 16.1 18.9001C16.2 18.9001 16.2 18.9001 16.2 18.8001V18.7001C16.2 17.8001 16.2 15.9001 16.2 15.9001C16.2 15.6001 16.2 15.4001 16.2 15.1001C16.2 15.0001 16.2 15.0001 16.1 15.0001C15.6 14.9001 15.2 14.9001 14.7 15.0001C14.1 15.0001 13.5 15.2001 12.9 15.4001C12 15.7001 11.1 16.3001 10.4 17.0001C9.80005 17.6001 9.30005 18.3001 8.90005 19.1001C8.60005 19.9001 8.40005 20.6001 8.30005 21.5001C8.30005 21.9001 8.30005 22.2001 8.30005 22.6001C8.30005 23.1001 8.40005 23.6001 8.60005 24.1001C9.00005 25.5001 9.80005 26.6001 10.9 27.5001C11 27.6001 11.1 27.7001 11.3 27.7001C11.4 27.8001 11.4 27.8001 11.5 27.9001C11.7 28.0001 11.9 28.2001 12.1 28.3001C13.4 28.9001 14.7 29.2001 16.1 29.0001C17.9 28.8001 19.4 28.0001 20.6 26.6001C21.7 25.3001 22.3 23.8001 22.3 22.1001C22.3 19.7001 22.3 17.2001 22.3 14.8001C22.3 14.7001 22.3 14.7001 22.3 14.6001C22.4 14.6001 22.4 14.6001 22.4 14.7001C23.3 15.3001 24.3 15.7001 25.3 16.0001C25.9 16.1001 26.5 16.2001 27.2001 16.2001C27.4001 16.2001 27.4 16.2001 27.4 16.0001C27.6 15.0001 27.5 12.6001 27.5 12.4001Z" fill="#191919"/>
</g>
<defs>
<clipPath id="clip0_1520_3078">
<rect width="36" height="36" fill="white"/>
</clipPath>
</defs>
</svg>
