<svg width="36" height="36" viewBox="0 0 36 36" fill="none" xmlns="http://www.w3.org/2000/svg">
<g id="m_group" clip-path="url(#clip0_1520_3082)">
<g id="Group">
<path id="Vector" d="M18 36C27.9411 36 36 27.9411 36 18C36 8.05887 27.9411 0 18 0C8.05887 0 0 8.05887 0 18C0 27.9411 8.05887 36 18 36Z" fill="white"/>
<g id="Group_2">
<path id="Vector_2" d="M19.1999 25.4999C10.9999 25.4999 6.0999 19.7999 5.8999 10.3999H9.9999C10.0999 17.2999 13.2999 20.1999 15.6999 20.7999V10.4999H19.6999V16.4999C21.9999 16.1999 24.4999 13.4999 25.2999 10.4999H29.1999C28.5999 14.1999 25.8999 16.8999 24.0999 17.9999C25.9999 18.8999 28.9999 21.2999 30.0999 25.4999H25.7999C24.8999 22.5999 22.6999 20.3999 19.6999 20.0999V25.4999H19.1999Z" fill="#191919"/>
</g>
</g>
</g>
<defs>
<clipPath id="clip0_1520_3082">
<rect width="36" height="36" fill="white"/>
</clipPath>
</defs>
</svg>
