<svg width="26" height="26" viewBox="0 0 26 26" fill="none" xmlns="http://www.w3.org/2000/svg">
<path d="M12.526 24.375H13.474C18.6306 24.375 21.1995 24.375 22.792 22.7825C24.375 21.19 24.375 18.6117 24.375 13.474V12.5071C24.375 7.38833 24.375 4.81 22.792 3.2175C21.1995 1.625 18.6211 1.625 13.474 1.625H12.526C7.36938 1.625 4.80052 1.625 3.20802 3.2175C1.625 4.81 1.625 7.38833 1.625 12.526V13.4929C1.625 18.6117 1.625 21.19 3.2175 22.7825C4.81 24.375 7.38833 24.375 12.526 24.375Z" fill="#0077FF"/>
<path d="M13.6531 17.875C8.65635 17.875 5.80625 14.5201 5.6875 8.9375H8.19047C8.27268 13.035 10.1179 14.7706 11.5795 15.1284V8.9375H13.9363V12.4713C15.3796 12.3193 16.896 10.7089 17.4076 8.9375H19.7644C19.5716 9.8562 19.1874 10.7261 18.6357 11.4927C18.084 12.2593 17.3767 12.9062 16.5581 13.3928C17.4718 13.8375 18.2789 14.4669 18.9261 15.2396C19.5733 16.0122 20.0458 16.9104 20.3125 17.875H17.7182C17.4788 17.0372 16.9922 16.2872 16.3195 15.719C15.6467 15.1509 14.8177 14.7898 13.9363 14.6811V17.875H13.6531Z" fill="white"/>
</svg>
