<svg width="24" height="24" viewBox="0 0 24 24" fill="none" xmlns="http://www.w3.org/2000/svg">
<g clip-path="url(#clip0_1067_12587)">
<path d="M11.999 23.9754C18.6129 23.9754 23.9745 18.6138 23.9745 11.9999C23.9745 5.38594 18.6129 0.024292 11.999 0.024292C5.38508 0.024292 0.0234375 5.38594 0.0234375 11.9999C0.0234375 18.6138 5.38508 23.9754 11.999 23.9754Z" fill="#191919"/>
<path d="M16.3334 19.5179H13.7046V6.51566H12.5334C10.3868 6.51566 9.26233 7.58899 9.26233 9.19121C9.26233 11.009 10.0379 11.8512 11.6423 12.9245L12.9646 13.8157L9.16456 19.5156H6.33789L9.75789 14.4268C7.79122 13.0223 6.68456 11.6512 6.68456 9.33788C6.68456 6.44677 8.70011 4.4801 12.5157 4.4801H16.3157V19.5134H16.3334V19.5179Z" fill="white"/>
</g>
<defs>
<clipPath id="clip0_1067_12587">
<rect width="24" height="24" fill="white"/>
</clipPath>
</defs>
</svg>
